<mxfile host="app.diagrams.net" modified="2024-07-07T06:32:31.561Z" agent="Mozilla/5.0 (Windows NT 10.0; Win64; x64) AppleWebKit/537.36 (KHTML, like Gecko) Chrome/126.0.0.0 Safari/537.36" etag="ClyUgFKq-YZJyuqYWivp" version="24.6.4" type="device">
  <diagram name="Page-1" id="3nI5dcSJvHoASp0ju7mN">
    <mxGraphModel dx="1750" dy="1015" grid="1" gridSize="10" guides="1" tooltips="1" connect="1" arrows="1" fold="1" page="1" pageScale="1" pageWidth="850" pageHeight="1100" math="0" shadow="0">
      <root>
        <mxCell id="0" />
        <mxCell id="1" parent="0" />
        <mxCell id="FOq2qhXTZanjmonyHOg7-1" value="Actor" style="shape=umlActor;verticalLabelPosition=bottom;verticalAlign=top;html=1;outlineConnect=0;" vertex="1" parent="1">
          <mxGeometry x="140" y="300" width="30" height="60" as="geometry" />
        </mxCell>
        <mxCell id="FOq2qhXTZanjmonyHOg7-2" value="Task Management" style="ellipse;whiteSpace=wrap;html=1;" vertex="1" parent="1">
          <mxGeometry x="240" y="270" width="120" height="80" as="geometry" />
        </mxCell>
        <mxCell id="FOq2qhXTZanjmonyHOg7-3" value="Add Task" style="ellipse;whiteSpace=wrap;html=1;" vertex="1" parent="1">
          <mxGeometry x="420" y="60" width="120" height="80" as="geometry" />
        </mxCell>
        <mxCell id="FOq2qhXTZanjmonyHOg7-4" value="Add priority" style="ellipse;whiteSpace=wrap;html=1;" vertex="1" parent="1">
          <mxGeometry x="610" y="10" width="75" height="50" as="geometry" />
        </mxCell>
        <mxCell id="FOq2qhXTZanjmonyHOg7-5" value="Set Due Date" style="ellipse;whiteSpace=wrap;html=1;" vertex="1" parent="1">
          <mxGeometry x="610" y="90" width="75" height="50" as="geometry" />
        </mxCell>
        <mxCell id="FOq2qhXTZanjmonyHOg7-7" value="Delete Task" style="ellipse;whiteSpace=wrap;html=1;" vertex="1" parent="1">
          <mxGeometry x="430" y="440" width="120" height="80" as="geometry" />
        </mxCell>
        <mxCell id="FOq2qhXTZanjmonyHOg7-8" value="View Task" style="ellipse;whiteSpace=wrap;html=1;" vertex="1" parent="1">
          <mxGeometry x="440" y="260" width="120" height="80" as="geometry" />
        </mxCell>
        <mxCell id="FOq2qhXTZanjmonyHOg7-9" value="Customize" style="ellipse;whiteSpace=wrap;html=1;" vertex="1" parent="1">
          <mxGeometry x="250" y="500" width="120" height="80" as="geometry" />
        </mxCell>
        <mxCell id="FOq2qhXTZanjmonyHOg7-10" value="" style="endArrow=classic;html=1;rounded=0;" edge="1" parent="1" source="FOq2qhXTZanjmonyHOg7-1" target="FOq2qhXTZanjmonyHOg7-2">
          <mxGeometry width="50" height="50" relative="1" as="geometry">
            <mxPoint x="430" y="350" as="sourcePoint" />
            <mxPoint x="480" y="300" as="targetPoint" />
          </mxGeometry>
        </mxCell>
        <mxCell id="FOq2qhXTZanjmonyHOg7-12" value="" style="endArrow=classic;html=1;rounded=0;" edge="1" parent="1" source="FOq2qhXTZanjmonyHOg7-2" target="FOq2qhXTZanjmonyHOg7-3">
          <mxGeometry width="50" height="50" relative="1" as="geometry">
            <mxPoint x="300" y="249.28932188134524" as="sourcePoint" />
            <mxPoint x="300" y="199.28932188134524" as="targetPoint" />
          </mxGeometry>
        </mxCell>
        <mxCell id="FOq2qhXTZanjmonyHOg7-13" value="" style="endArrow=classic;html=1;rounded=0;" edge="1" parent="1" source="FOq2qhXTZanjmonyHOg7-3" target="FOq2qhXTZanjmonyHOg7-4">
          <mxGeometry width="50" height="50" relative="1" as="geometry">
            <mxPoint x="540" y="150" as="sourcePoint" />
            <mxPoint x="610.7106781186548" y="100" as="targetPoint" />
          </mxGeometry>
        </mxCell>
        <mxCell id="FOq2qhXTZanjmonyHOg7-14" value="" style="endArrow=classic;html=1;rounded=0;" edge="1" parent="1" source="FOq2qhXTZanjmonyHOg7-3" target="FOq2qhXTZanjmonyHOg7-5">
          <mxGeometry width="50" height="50" relative="1" as="geometry">
            <mxPoint x="430" y="350" as="sourcePoint" />
            <mxPoint x="480" y="300" as="targetPoint" />
          </mxGeometry>
        </mxCell>
        <mxCell id="FOq2qhXTZanjmonyHOg7-16" value="" style="endArrow=classic;html=1;rounded=0;" edge="1" parent="1" source="FOq2qhXTZanjmonyHOg7-2" target="FOq2qhXTZanjmonyHOg7-8">
          <mxGeometry width="50" height="50" relative="1" as="geometry">
            <mxPoint x="360" y="360" as="sourcePoint" />
            <mxPoint x="430.71067811865476" y="310" as="targetPoint" />
          </mxGeometry>
        </mxCell>
        <mxCell id="FOq2qhXTZanjmonyHOg7-17" value="" style="endArrow=classic;html=1;rounded=0;entryX=0.313;entryY=0.058;entryDx=0;entryDy=0;entryPerimeter=0;" edge="1" parent="1" source="FOq2qhXTZanjmonyHOg7-2" target="FOq2qhXTZanjmonyHOg7-7">
          <mxGeometry width="50" height="50" relative="1" as="geometry">
            <mxPoint x="300" y="400" as="sourcePoint" />
            <mxPoint x="300" y="420.71067811865476" as="targetPoint" />
          </mxGeometry>
        </mxCell>
        <mxCell id="FOq2qhXTZanjmonyHOg7-19" value="" style="endArrow=classic;html=1;rounded=0;" edge="1" parent="1" source="FOq2qhXTZanjmonyHOg7-1" target="FOq2qhXTZanjmonyHOg7-9">
          <mxGeometry width="50" height="50" relative="1" as="geometry">
            <mxPoint x="170" y="410" as="sourcePoint" />
            <mxPoint x="220" y="360" as="targetPoint" />
          </mxGeometry>
        </mxCell>
        <mxCell id="FOq2qhXTZanjmonyHOg7-20" value="" style="endArrow=classic;html=1;rounded=0;" edge="1" parent="1" source="FOq2qhXTZanjmonyHOg7-2" target="FOq2qhXTZanjmonyHOg7-21">
          <mxGeometry width="50" height="50" relative="1" as="geometry">
            <mxPoint x="300" y="400" as="sourcePoint" />
            <mxPoint x="490" y="640" as="targetPoint" />
          </mxGeometry>
        </mxCell>
        <mxCell id="FOq2qhXTZanjmonyHOg7-21" value="Complete Task" style="ellipse;whiteSpace=wrap;html=1;" vertex="1" parent="1">
          <mxGeometry x="390" y="540" width="120" height="80" as="geometry" />
        </mxCell>
        <mxCell id="FOq2qhXTZanjmonyHOg7-22" value="Urgent Task" style="ellipse;whiteSpace=wrap;html=1;" vertex="1" parent="1">
          <mxGeometry x="670" y="285" width="72.5" height="50" as="geometry" />
        </mxCell>
        <mxCell id="FOq2qhXTZanjmonyHOg7-23" value="" style="endArrow=classic;html=1;rounded=0;" edge="1" parent="1" source="FOq2qhXTZanjmonyHOg7-8" target="FOq2qhXTZanjmonyHOg7-22">
          <mxGeometry width="50" height="50" relative="1" as="geometry">
            <mxPoint x="610" y="420" as="sourcePoint" />
            <mxPoint x="660" y="370" as="targetPoint" />
          </mxGeometry>
        </mxCell>
        <mxCell id="FOq2qhXTZanjmonyHOg7-25" value="Settings" style="ellipse;whiteSpace=wrap;html=1;" vertex="1" parent="1">
          <mxGeometry x="250" y="660" width="72.5" height="50" as="geometry" />
        </mxCell>
        <mxCell id="FOq2qhXTZanjmonyHOg7-26" value="Theme" style="ellipse;whiteSpace=wrap;html=1;" vertex="1" parent="1">
          <mxGeometry x="150" y="660" width="72.5" height="50" as="geometry" />
        </mxCell>
        <mxCell id="FOq2qhXTZanjmonyHOg7-27" value="" style="endArrow=classic;html=1;rounded=0;" edge="1" parent="1" source="FOq2qhXTZanjmonyHOg7-9" target="FOq2qhXTZanjmonyHOg7-25">
          <mxGeometry width="50" height="50" relative="1" as="geometry">
            <mxPoint x="420" y="520" as="sourcePoint" />
            <mxPoint x="470" y="470" as="targetPoint" />
          </mxGeometry>
        </mxCell>
        <mxCell id="FOq2qhXTZanjmonyHOg7-28" value="" style="endArrow=classic;html=1;rounded=0;entryX=1;entryY=0;entryDx=0;entryDy=0;exitX=0.287;exitY=0.978;exitDx=0;exitDy=0;exitPerimeter=0;" edge="1" parent="1" source="FOq2qhXTZanjmonyHOg7-9" target="FOq2qhXTZanjmonyHOg7-26">
          <mxGeometry width="50" height="50" relative="1" as="geometry">
            <mxPoint x="190" y="620" as="sourcePoint" />
            <mxPoint x="240" y="570" as="targetPoint" />
          </mxGeometry>
        </mxCell>
        <mxCell id="FOq2qhXTZanjmonyHOg7-29" value="Notification" style="ellipse;whiteSpace=wrap;html=1;" vertex="1" parent="1">
          <mxGeometry x="347.5" y="720" width="72.5" height="50" as="geometry" />
        </mxCell>
        <mxCell id="FOq2qhXTZanjmonyHOg7-30" value="" style="endArrow=classic;html=1;rounded=0;entryX=0.354;entryY=-0.02;entryDx=0;entryDy=0;entryPerimeter=0;" edge="1" parent="1" source="FOq2qhXTZanjmonyHOg7-9" target="FOq2qhXTZanjmonyHOg7-29">
          <mxGeometry width="50" height="50" relative="1" as="geometry">
            <mxPoint x="330" y="650" as="sourcePoint" />
            <mxPoint x="380" y="600" as="targetPoint" />
          </mxGeometry>
        </mxCell>
        <mxCell id="FOq2qhXTZanjmonyHOg7-31" value="" style="endArrow=classic;html=1;rounded=0;exitX=1.006;exitY=0.668;exitDx=0;exitDy=0;exitPerimeter=0;" edge="1" parent="1" source="FOq2qhXTZanjmonyHOg7-29" target="FOq2qhXTZanjmonyHOg7-22">
          <mxGeometry width="50" height="50" relative="1" as="geometry">
            <mxPoint x="530" y="520" as="sourcePoint" />
            <mxPoint x="580" y="470" as="targetPoint" />
          </mxGeometry>
        </mxCell>
        <mxCell id="FOq2qhXTZanjmonyHOg7-32" value="" style="endArrow=classic;html=1;rounded=0;exitX=1;exitY=0.5;exitDx=0;exitDy=0;" edge="1" parent="1" source="FOq2qhXTZanjmonyHOg7-33">
          <mxGeometry width="50" height="50" relative="1" as="geometry">
            <mxPoint x="640" y="500" as="sourcePoint" />
            <mxPoint x="700" y="550" as="targetPoint" />
          </mxGeometry>
        </mxCell>
        <mxCell id="FOq2qhXTZanjmonyHOg7-34" value="" style="endArrow=classic;html=1;rounded=0;entryX=0.5;entryY=1;entryDx=0;entryDy=0;" edge="1" parent="1" source="FOq2qhXTZanjmonyHOg7-2" target="FOq2qhXTZanjmonyHOg7-35">
          <mxGeometry width="50" height="50" relative="1" as="geometry">
            <mxPoint x="640" y="570" as="sourcePoint" />
            <mxPoint x="280" y="170" as="targetPoint" />
          </mxGeometry>
        </mxCell>
        <mxCell id="FOq2qhXTZanjmonyHOg7-35" value="Failed Task" style="ellipse;whiteSpace=wrap;html=1;" vertex="1" parent="1">
          <mxGeometry x="210" y="70" width="120" height="80" as="geometry" />
        </mxCell>
        <mxCell id="FOq2qhXTZanjmonyHOg7-36" value="Procasstinator level increase" style="ellipse;whiteSpace=wrap;html=1;" vertex="1" parent="1">
          <mxGeometry x="50" y="40" width="120" height="80" as="geometry" />
        </mxCell>
        <mxCell id="FOq2qhXTZanjmonyHOg7-38" value="" style="endArrow=classic;html=1;rounded=0;" edge="1" parent="1" source="FOq2qhXTZanjmonyHOg7-35" target="FOq2qhXTZanjmonyHOg7-36">
          <mxGeometry width="50" height="50" relative="1" as="geometry">
            <mxPoint x="220" y="80" as="sourcePoint" />
            <mxPoint x="270" y="30" as="targetPoint" />
          </mxGeometry>
        </mxCell>
        <mxCell id="FOq2qhXTZanjmonyHOg7-39" value="" style="endArrow=classic;html=1;rounded=0;exitX=1;exitY=0.5;exitDx=0;exitDy=0;" edge="1" parent="1" source="FOq2qhXTZanjmonyHOg7-21" target="FOq2qhXTZanjmonyHOg7-33">
          <mxGeometry width="50" height="50" relative="1" as="geometry">
            <mxPoint x="510" y="580" as="sourcePoint" />
            <mxPoint x="700" y="550" as="targetPoint" />
          </mxGeometry>
        </mxCell>
        <mxCell id="FOq2qhXTZanjmonyHOg7-33" value="Reward" style="ellipse;whiteSpace=wrap;html=1;" vertex="1" parent="1">
          <mxGeometry x="630" y="510" width="120" height="80" as="geometry" />
        </mxCell>
        <mxCell id="FOq2qhXTZanjmonyHOg7-40" value="Fig: Functional DIagram of Procastinator&#39;s to-do list" style="text;html=1;align=center;verticalAlign=middle;resizable=0;points=[];autosize=1;strokeColor=none;fillColor=#000000;fontColor=#F5F5F5;" vertex="1" parent="1">
          <mxGeometry x="180" y="828" width="300" height="30" as="geometry" />
        </mxCell>
      </root>
    </mxGraphModel>
  </diagram>
</mxfile>
